<svg xmlns="http://www.w3.org/2000/svg" viewBox="0 0 9.57 10.12"><defs><style>.cls-1{fill:#fff;}</style></defs><title>资源 1</title><g id="图层_2"><g id="Layer_1"><path class="cls-1" d="M7.63,3.18A2.05,2.05,0,0,0,5.72,4.35a.07.07,0,0,0,.07.11H7.15a.1.1,0,0,1,.1.1v1a.1.1,0,0,1-.1.1H5.31a.18.18,0,0,0-.17.11A3.59,3.59,0,0,1,2.08,8.09,4.22,4.22,0,0,1,.8,8a.05.05,0,0,0-.06.08A5,5,0,0,0,5,10.12,4.74,4.74,0,0,0,9.57,5.6C9.57,4,8.65,3.18,7.63,3.18Z"/><path class="cls-1" d="M8.81,2A5,5,0,0,0,4.55,0,4.74,4.74,0,0,0,0,4.52C0,6.15.92,6.93,1.94,6.93A2,2,0,0,0,3.85,5.77a.07.07,0,0,0-.07-.11H2.41a.1.1,0,0,1-.09-.1v-1a.1.1,0,0,1,.09-.1H4.26a.18.18,0,0,0,.17-.11A3.59,3.59,0,0,1,7.49,2a4.45,4.45,0,0,1,1.26.1A.06.06,0,0,0,8.81,2Z"/></g></g></svg>