<svg xmlns="http://www.w3.org/2000/svg" xmlns:xlink="http://www.w3.org/1999/xlink" viewBox="0 0 164.78 60.15"><defs><style>.cls-1{fill:url(#linear-gradient);}.cls-2{fill:url(#linear-gradient-2);}.cls-3{fill:#000000;}</style><linearGradient id="linear-gradient" x1="30.61" y1="60.15" x2="30.61" y2="18.89" gradientUnits="userSpaceOnUse"><stop offset="0" stop-color="#2d4af7"/><stop offset="0.77" stop-color="#1289ef"/><stop offset="1" stop-color="#0a9ced"/></linearGradient><linearGradient id="linear-gradient-2" x1="0" y1="20.59" x2="52.46" y2="20.59" xlink:href="#linear-gradient"/></defs><title>资源 3</title><g id="图层_2" data-name="图层 2"><g id="Layer_1" data-name="Layer 1"><path class="cls-1" d="M45.35,18.89c-4.43,0-8.39,1.74-11.34,6.94a.48.48,0,0,0,.42.7h8.09a.59.59,0,0,1,.59.59V33a.59.59,0,0,1-.59.59H31.59a1.14,1.14,0,0,0-1,.68c-4.8,11-13.31,13.37-18.2,13.78a23.93,23.93,0,0,1-7.63-.65.32.32,0,0,0-.33.5c5.86,7.68,13.48,12.22,25.46,12.22,14.12,0,27-13,27-26.89C56.88,23.61,51.4,18.89,45.35,18.89Z"/><path class="cls-2" d="M52.38,12.09C46.54,4.49,38.94,0,27,0,12.9,0,0,13,0,26.89c0,9.65,5.49,14.29,11.53,14.29,4.43,0,8.39-1.69,11.33-6.86a.47.47,0,0,0-.41-.7h-8.1a.58.58,0,0,1-.59-.59V27.12a.58.58,0,0,1,.59-.59h11a1.12,1.12,0,0,0,1-.68c4.8-11,13.31-13.37,18.21-13.78a24.07,24.07,0,0,1,7.46.61A.37.37,0,0,0,52.38,12.09Z"/><path class="cls-3" d="M77.73,15.62H75.55v-3.5h2.18v-.79c0-5.78,4.74-6.55,7.2-6.55a9,9,0,0,1,1.49.11V8.63a5.5,5.5,0,0,0-.9-.07c-1.25,0-3.39.31-3.39,2.87v.69H85.9v3.5H82.13V29.5h-4.4Z"/><path class="cls-3" d="M88.05,20.89a18.52,18.52,0,0,1,3-10h2.69a19.45,19.45,0,0,0-2.84,10,22.92,22.92,0,0,0,2.84,11H91A21.21,21.21,0,0,1,88.05,20.89Z"/><path class="cls-3" d="M103.24,23.45a7.5,7.5,0,0,1-.49.93L99.67,29.5H94.79l5.82-8.93-5.68-8.72h5l2.73,4.81c.28.45.59,1.11.59,1.11h.07s.31-.66.59-1.11l2.73-4.81h5l-5.68,8.72,5.82,8.93h-4.89l-3.08-5.12a8.41,8.41,0,0,1-.48-.93Z"/><path class="cls-3" d="M112.82,31.89a23.26,23.26,0,0,0,2.84-11,19.55,19.55,0,0,0-2.84-10h2.69a18.59,18.59,0,0,1,3,10,21.2,21.2,0,0,1-3,11Z"/><path class="cls-3" d="M76.76,41h5.61a4.93,4.93,0,1,1,0,9.85h-4V57.2H76.76Zm5.4,8.42a3.3,3.3,0,0,0,3.58-3.53,3.25,3.25,0,0,0-3.56-3.46H78.35v7Z"/><path class="cls-3" d="M90.1,45.59h1.54v2.06c0,.5,0,.92,0,.92h0a4,4,0,0,1,3.67-3.09,3.13,3.13,0,0,1,.63.07v1.54a4.65,4.65,0,0,0-.58,0c-1.64,0-2.86,1.29-3.37,3a7.62,7.62,0,0,0-.32,2.26V57.2H90.1Z"/><path class="cls-3" d="M103.46,45.32a6,6,0,0,1,6.14,6,6.14,6.14,0,0,1-12.28,0A6,6,0,0,1,103.46,45.32Zm0,10.75A4.58,4.58,0,0,0,108,51.34a4.52,4.52,0,1,0-9,0A4.58,4.58,0,0,0,103.46,56.07Z"/><path class="cls-3" d="M113,47.05h-1.52V45.73H113V42.39h1.55v3.34h2.9v1.32h-2.9v5.76c0,2.73,1.73,3.07,2.6,3.07a3.18,3.18,0,0,0,.54,0v1.4a3.91,3.91,0,0,1-.67,0c-1.34,0-4-.44-4-4.31Z"/><path class="cls-3" d="M125.54,45.32a6,6,0,0,1,6.14,6,6.14,6.14,0,1,1-12.27,0A6,6,0,0,1,125.54,45.32Zm0,10.75a4.58,4.58,0,0,0,4.53-4.73,4.53,4.53,0,1,0-9,0A4.58,4.58,0,0,0,125.54,56.07Z"/><path class="cls-3" d="M139.9,45.32A5.69,5.69,0,0,1,144.14,47l-.8,1.17a5,5,0,0,0-3.4-1.4,4.45,4.45,0,0,0-4.52,4.66A4.5,4.5,0,0,0,140,56.07a5.14,5.14,0,0,0,3.72-1.64l.71,1.22a6.19,6.19,0,0,1-4.52,1.83,6.08,6.08,0,1,1,0-12.16Z"/><path class="cls-3" d="M152.57,45.32a6,6,0,0,1,6.13,6,6.14,6.14,0,1,1-6.13-6Zm0,10.75a4.58,4.58,0,0,0,4.52-4.73,4.52,4.52,0,1,0-9,0A4.58,4.58,0,0,0,152.57,56.07Z"/><path class="cls-3" d="M161.52,41h1.57V54.11c0,1.52.69,1.75,1.29,1.75.21,0,.4,0,.4,0v1.4a3.74,3.74,0,0,1-.58,0c-1,0-2.68-.3-2.68-2.84Z"/></g></g></svg>