<?xml version="1.0" standalone="no"?><!DOCTYPE svg PUBLIC "-//W3C//DTD SVG 1.1//EN" "http://www.w3.org/Graphics/SVG/1.1/DTD/svg11.dtd"><svg t="1695114808190" class="icon" viewBox="0 0 1476 1024" version="1.1" xmlns="http://www.w3.org/2000/svg" p-id="15074" xmlns:xlink="http://www.w3.org/1999/xlink" fill="#ffffff" width="288.28125" height="200"><path d="M634.461538 198.641958c0-18.618182-15.109091-33.727273-33.727272-33.727273s-33.728671 15.109091-33.728672 33.727273v304.264336L365.714685 684.004196c-14.393007 12.962238-15.60979 35.232168-2.648951 49.625175s35.230769 15.611189 49.623776 2.647552l210.027973-188.972028c7.876923-7.088112 11.457343-16.972028 11.241958-26.780419 0.144056-0.788811 0.502098-1.363636 0.502097-2.078322V198.641958z" fill="" p-id="15075"></path><path d="M630.881119 936.423776c-234.446154 0-424.422378-190.048951-424.422378-424.423776 0-234.446154 190.048951-424.422378 424.422378-424.422378 173.434965 0 322.309091 104.117483 388.188811 253.206993h93.878322C1042.413986 142.285315 853.513287 0 630.881119 0 348.099301 0 118.881119 229.218182 118.881119 512s229.218182 512 512 512c118.083916 0 226.570629-40.387413 313.215384-107.555245H759.632168c-40.601399 12.890909-83.853147 19.979021-128.751049 19.979021z" fill="" p-id="15076"></path><path d="M1104.91049 592.499301h-28.339861v-65.906294c0-55.193007-44.86014-100.07972-100.055944-100.07972-55.197203 0-100.104895 44.886713-100.104895 100.07972v65.906294h-28.316084c-13.651748 0-24.716084 11.062937-24.716084 24.720279V797.664336c0 13.678322 11.064336 24.742657 24.716084 24.742657h256.841958c13.653147 0 24.692308-11.064336 24.692308-24.742657V617.21958c-0.001399-13.657343-11.062937-24.72028-24.721678-24.720279h0.004196z m-114.514686 119.646154v39.401398a3.265734 3.265734 0 0 1-3.243356 3.243357h-21.247553c-1.80979 0-3.26993-1.483916-3.26993-3.243357v-39.401398c-9.981818-5.106294-16.895105-15.341259-16.895105-27.337063 0-16.970629 13.779021-30.776224 30.752448-30.776224 16.997203 0 30.779021 13.805594 30.779021 30.776224 0.023776 11.995804-6.892308 22.229371-16.875525 27.337063z m47.776224-119.646154h-123.316084v-64.274126c0-33.997203 27.685315-61.682517 61.682518-61.682518 33.998601 0 61.633566 27.685315 61.633566 61.682518v64.274126z" fill="#ffffff" p-id="15077"></path></svg>