<?xml version="1.0" standalone="no"?><!DOCTYPE svg PUBLIC "-//W3C//DTD SVG 1.1//EN" "http://www.w3.org/Graphics/SVG/1.1/DTD/svg11.dtd"><svg t="1695114647434" class="icon" viewBox="0 0 1024 1024" version="1.1" xmlns="http://www.w3.org/2000/svg" p-id="8304" xmlns:xlink="http://www.w3.org/1999/xlink" width="200" height="200"><path d="M352 400h73.44L496 470.56v33.44a16 16 0 0 0 16 16 16 16 0 0 0 16-16v-113.44l61.44-61.28A160 160 0 0 0 804.8 320l56.64-56.48a16.8 16.8 0 0 0 4.16-11.84 17.28 17.28 0 0 0-5.28-11.84 160 160 0 0 0-226.24 0l-53.44 53.28-3.2 3.2L528 345.44V278.4a160 160 0 0 0-3.68-222.4l-34.08-34.24a16 16 0 0 0-22.56 0 160 160 0 0 0 0 226.24L496 276.48v148.96l-48-48A160 160 0 0 0 288 224h-80a16 16 0 0 0-16 16 160 160 0 0 0 160 160zM616.8 672h2.4l44 29.28A15.04 15.04 0 0 0 672 704a16 16 0 0 0 8.8-29.28L652.8 656l28-18.72a16 16 0 0 0-17.6-26.56L619.2 640h-9.92l39.68-49.6a32 32 0 0 0 7.04-20 32 32 0 0 0-13.44-26.4 32 32 0 0 0-28.32-4.32 80 80 0 0 0-13.44 5.92 52.8 52.8 0 0 1-49.76 0 78.88 78.88 0 0 0-23.04-8.16 80 80 0 0 0-16-1.44 77.44 77.44 0 0 0-16 1.44 75.68 75.68 0 0 0-23.2 8.32 48 48 0 0 1-24.8 6.24 47.04 47.04 0 0 1-24.8-6.24 103.2 103.2 0 0 0-13.44-5.92 32 32 0 0 0-28.32 4.32 32 32 0 0 0-6.4 46.24l39.68 49.6H400a16 16 0 0 0 0 32h7.2l-145.76 134.56A116 116 0 0 0 340.16 1008h343.68a116 116 0 0 0 78.72-201.44zM512 800a48 48 0 0 1 16 93.12V912a16 16 0 0 1-32 0v-16h-16a16 16 0 0 1 0-32h32a16 16 0 0 0 0-32 48 48 0 0 1-16-93.12V720a16 16 0 0 1 32 0v16h16a16 16 0 0 1 0 32h-32a16 16 0 0 0 0 32zM112 480a16 16 0 0 0-16-16 16 16 0 0 1-16-16 16 16 0 0 0-32 0 16 16 0 0 1-16 16 16 16 0 0 0 0 32 16 16 0 0 1 16 16 16 16 0 0 0 32 0 16 16 0 0 1 16-16 16 16 0 0 0 16-16zM976 336a16 16 0 0 0-16-16 16 16 0 0 1-16-16 16 16 0 0 0-32 0 16 16 0 0 1-16 16 16 16 0 0 0 0 32 16 16 0 0 1 16 16 16 16 0 0 0 32 0 16 16 0 0 1 16-16 16 16 0 0 0 16-16zM832 576a16 16 0 0 1-16-16 16 16 0 0 0-32 0 16 16 0 0 1-16 16 16 16 0 0 0 0 32 16 16 0 0 1 16 16 16 16 0 0 0 32 0 16 16 0 0 1 16-16 16 16 0 0 0 0-32z" p-id="8305"></path><path d="M240 720a16 16 0 0 0 32 0 16 16 0 0 1 16-16 16 16 0 0 0 0-32 16 16 0 0 1-16-16 16 16 0 0 0-32 0 16 16 0 0 1-16 16 16 16 0 0 0 0 32 16 16 0 0 1 16 16zM704 144a16 16 0 0 1 16 16 16 16 0 0 0 32 0 16 16 0 0 1 16-16 16 16 0 0 0 0-32 16 16 0 0 1-16-16 16 16 0 0 0-32 0 16 16 0 0 1-16 16 16 16 0 0 0 0 32zM224 144a16 16 0 0 1 16 16 16 16 0 0 0 32 0 16 16 0 0 1 16-16 16 16 0 0 0 0-32 16 16 0 0 1-16-16 16 16 0 0 0-32 0 16 16 0 0 1-16 16 16 16 0 0 0 0 32z" p-id="8306"></path><path d="M624 64m-16 0a16 16 0 1 0 32 0 16 16 0 1 0-32 0Z" p-id="8307"></path><path d="M864 800m-16 0a16 16 0 1 0 32 0 16 16 0 1 0-32 0Z" p-id="8308"></path><path d="M176 832m-16 0a16 16 0 1 0 32 0 16 16 0 1 0-32 0Z" p-id="8309"></path><path d="M976 560m-16 0a16 16 0 1 0 32 0 16 16 0 1 0-32 0Z" p-id="8310"></path><path d="M624 448m-16 0a16 16 0 1 0 32 0 16 16 0 1 0-32 0Z" p-id="8311"></path><path d="M112 640m-16 0a16 16 0 1 0 32 0 16 16 0 1 0-32 0Z" p-id="8312"></path><path d="M352 480m-16 0a16 16 0 1 0 32 0 16 16 0 1 0-32 0Z" p-id="8313"></path><path d="M144 304m-16 0a16 16 0 1 0 32 0 16 16 0 1 0-32 0Z" p-id="8314"></path></svg>