<svg width="16" height="16" viewBox="0 0 16 16" fill="none" xmlns="http://www.w3.org/2000/svg">
<path d="M12.7781 1.71328H3.24219C3.04062 1.71328 2.8875 1.54766 2.8875 1.35859C2.8875 1.15703 3.05313 1.00391 3.24219 1.00391H12.7766C12.9781 1.00391 13.1313 1.16953 13.1313 1.35859C13.1438 1.54766 12.9781 1.71328 12.7781 1.71328ZM13.25 15.0336H2.78125C2.56875 15.0336 2.39062 14.8555 2.39062 14.643C2.39062 14.4305 2.56875 14.2523 2.78125 14.2523H13.25C13.4625 14.2523 13.6406 14.4305 13.6406 14.643C13.6406 14.8555 13.4641 15.0336 13.25 15.0336Z" fill="#6B79FC"/>
<path d="M11.7719 10.2078L11.7594 10.1844C11.1563 9.13125 10.3516 8.44531 9.50001 8.03125C10.3516 7.60469 11.1438 6.93125 11.7594 5.87813L11.7719 5.85469C12.375 4.8125 12.7781 3.39375 12.8484 1.5H12.15C12.0906 3.25156 11.7234 4.55156 11.1688 5.51094L11.1563 5.52344C10.4703 6.74219 9.70157 7.39219 8.70782 7.7L8.66095 7.7125H8.64845C8.62501 7.725 8.61251 7.73594 8.58908 7.74844L8.57658 7.76094L8.55314 7.78438L8.5297 7.80781V7.82031C8.5172 7.83281 8.50626 7.85625 8.49376 7.87969L8.48126 7.89219L8.45782 7.975V8.10469L8.48126 8.1875L8.49376 8.2C8.50626 8.22344 8.5172 8.23594 8.5297 8.25937V8.27188L8.55314 8.29531V8.28281L8.57658 8.29531L8.58908 8.30781C8.60157 8.32031 8.62501 8.33125 8.64845 8.34375H8.66095L8.70782 8.36719C9.71407 8.68594 10.4703 9.325 11.1688 10.5328L11.1813 10.5562C11.4766 11.0531 11.7016 11.6562 11.8797 12.3547C11.9156 12.5563 12.0453 12.9938 12.0688 13.5609C11.5125 13.0641 9.97501 12.7094 8.1297 12.6859V7.21406C8.15314 7.21406 8.16564 7.20156 8.18907 7.19063V7.17812L8.28439 7.14219H8.30783C8.98283 6.92969 9.51408 6.59844 9.96408 6.16094C10.4375 5.6875 10.8047 5.10781 11.0531 4.45781C11.1235 4.27969 11.0406 4.07969 10.8516 4.00781C10.6734 3.9375 10.4735 4.02031 10.4016 4.19688V4.20937C10.1891 4.75312 9.88126 5.2625 9.47814 5.66406C9.10939 6.01875 8.67189 6.30312 8.11564 6.46875L8.10314 6.48125L8.0672 6.49375L8.00782 6.50625L7.97189 6.49375L7.94845 6.48125L7.91251 6.46875C7.36876 6.29063 6.90626 6.01875 6.55157 5.66406C6.13751 5.2625 5.8422 4.76562 5.62814 4.20937C5.55782 4.03125 5.35626 3.9375 5.19064 4.00781C5.01251 4.07812 4.9297 4.26875 4.98907 4.45781C5.23751 5.10781 5.5922 5.6875 6.07814 6.16094C6.51564 6.59844 7.05939 6.92969 7.72189 7.14219H7.73439L7.8297 7.17812L7.85314 7.19063C7.86564 7.20312 7.87657 7.20312 7.90001 7.21406V12.6797C6.17345 12.6797 4.67032 12.975 3.96095 13.3891C3.98439 13.1047 4.04376 12.7969 4.15001 12.3484C4.32814 11.6391 4.56407 11.0469 4.84845 10.55L4.86095 10.5266C5.55939 9.32031 6.31564 8.68125 7.33282 8.36094L7.36876 8.3375H7.38126C7.4047 8.325 7.4172 8.31406 7.44064 8.30156L7.45314 8.28906L7.47657 8.27656V8.26406L7.50001 8.24063V8.22812C7.51251 8.21562 7.52345 8.19219 7.53595 8.16875V8.15625C7.54845 8.13281 7.55939 8.09688 7.55939 8.07344V7.95469C7.55939 7.93125 7.54689 7.89531 7.53595 7.87187V7.85938C7.52345 7.83594 7.51251 7.8125 7.50001 7.8V7.7875L7.47657 7.76406L7.45314 7.74062L7.4172 7.75313C7.39376 7.74063 7.38126 7.72969 7.35782 7.71719H7.34532L7.30939 7.70469C6.30314 7.39687 5.53439 6.74687 4.83751 5.52812L4.82501 5.51562C4.28126 4.55781 3.91407 3.25625 3.84376 1.50469H3.14532C3.21564 3.39688 3.61876 4.80469 4.22189 5.85781L4.23439 5.88125C4.83751 6.93437 5.6422 7.60781 6.49376 8.03438C5.6422 8.44844 4.85001 9.13438 4.23439 10.1875L4.22189 10.2109C3.65626 11.2125 3.2547 12.5375 3.17189 14.3H12.825C12.7422 12.5266 12.3516 11.2016 11.7719 10.2078Z" fill="#6B79FC"/>
</svg>
