<svg width="24" height="24" viewBox="0 0 24 24" fill="none" xmlns="http://www.w3.org/2000/svg">
<g clip-path="url(#clip0_1514_661)">
<path d="M4.80104 11.8665C4.80104 15.734 8.00174 18.9347 12.0026 18.9347C16.0035 18.9347 19.2042 15.734 19.2042 11.8665C19.2042 7.99899 15.8701 4.93166 12.0026 4.93166C8.1351 4.93166 4.80104 7.99899 4.80104 11.8665ZM12.0026 3.59803C11.6025 3.59803 11.3358 3.33131 11.3358 2.93122V1.33087C11.3358 0.930787 11.6025 0.664062 12.0026 0.664062C12.4027 0.664062 12.6694 0.930787 12.6694 1.33087V2.93122C12.8028 3.33131 12.4027 3.59803 12.0026 3.59803ZM5.33449 6.13192C5.06777 6.39864 4.53432 6.39864 4.26759 6.13192L3.20069 5.06502C2.93397 4.79829 2.93397 4.39821 3.20069 3.99812C3.46742 3.7314 4.00087 3.7314 4.26759 3.99812L5.33449 5.19838C5.73458 5.4651 5.73458 5.86519 5.33449 6.13192ZM24.0052 10.7996C24.0052 11.1997 23.7385 11.5998 23.3384 11.5998H21.7381C21.338 11.5998 21.0712 11.333 21.0712 10.933C21.0712 10.5329 21.338 10.2661 21.7381 10.2661H23.3384C23.6051 10.1328 24.0052 10.3995 24.0052 10.7996ZM3.06733 10.7996C3.06733 11.333 2.66725 11.5998 2.26716 11.5998H0.666811C0.266725 11.5998 0 11.333 0 10.933C0 10.5329 0.266725 10.2661 0.666811 10.2661H2.26716C2.66725 10.1328 3.06733 10.3995 3.06733 10.7996ZM20.8045 4.13148C21.0712 4.39821 21.0712 4.93166 20.8045 5.19838L19.7376 6.26528C19.4709 6.532 18.9374 6.532 18.6707 6.26528C18.404 5.99855 18.404 5.59847 18.6707 5.19838L19.7376 4.13148C20.0043 3.86476 20.5378 3.86476 20.8045 4.13148ZM14.6699 21.0685H9.33536C8.93527 21.0685 8.53519 20.6684 8.53519 20.2683C8.53519 19.8682 8.93527 19.4681 9.33536 19.4681H14.6699C15.0699 19.4681 15.47 19.8682 15.47 20.2683C15.3367 20.8018 15.0699 21.0685 14.6699 21.0685ZM13.0695 23.3356H10.9357C10.5356 23.3356 10.1355 22.9356 10.1355 22.5355C10.1355 22.1354 10.5356 21.7353 10.9357 21.7353H13.0695C13.4696 21.7353 13.8697 22.1354 13.8697 22.5355C13.7363 22.9356 13.4696 23.3356 13.0695 23.3356ZM12.0026 3.59803C11.6025 3.59803 11.3358 3.33131 11.3358 2.93122V1.33087C11.3358 0.930787 11.6025 0.664062 12.0026 0.664062C12.4027 0.664062 12.6694 0.930787 12.6694 1.33087V2.93122C12.8028 3.33131 12.4027 3.59803 12.0026 3.59803Z" fill="#FCC776"/>
</g>
<defs>
<clipPath id="clip0_1514_661">
<rect width="24" height="24" fill="white"/>
</clipPath>
</defs>
</svg>
