<svg xmlns="http://www.w3.org/2000/svg" viewBox="0 0 9.84 9.88"><defs><style>.cls-2{fill:#fff;}</style></defs><title>资源 3</title><g id="图层_2"><g id="Layer_1"><g class="cls-1"><path class="cls-2" d="M8.26,5A2,2,0,0,1,6.07,5a.08.08,0,0,1,0-.14l1.12-.72a.11.11,0,0,0,0-.14l-.52-.81a.1.1,0,0,0-.14,0L5,4.17a.18.18,0,0,1-.2,0,3.51,3.51,0,0,0-3.75-.27,3.93,3.93,0,0,0-1,.77s-.09,0-.09,0a4.84,4.84,0,0,1,2.43-4A4.64,4.64,0,0,1,8.57,2C9.43,3.29,9.1,4.43,8.26,5Z"/><path class="cls-2" d="M9.84,5.28A4.85,4.85,0,0,1,7.42,9.22a4.64,4.64,0,0,1-6.15-1.3c-.86-1.33-.52-2.46.32-3a2,2,0,0,1,2.18-.07.08.08,0,0,1,0,.13l-1.12.73a.09.09,0,0,0,0,.13l.53.82a.09.09,0,0,0,.13,0l1.51-1a.2.2,0,0,1,.21,0A3.51,3.51,0,0,0,8.76,6a4.19,4.19,0,0,0,1-.75A.06.06,0,0,1,9.84,5.28Z"/></g></g></g></svg>