<svg xmlns="http://www.w3.org/2000/svg" width="100" height="100" viewBox="0 0 15.56 13.92"><defs><style>.cls-1{fill:#0021db;}.cls-1,.cls-10,.cls-100,.cls-101,.cls-102,.cls-103,.cls-104,.cls-105,.cls-106,.cls-107,.cls-108,.cls-109,.cls-11,.cls-110,.cls-111,.cls-112,.cls-113,.cls-114,.cls-12,.cls-13,.cls-14,.cls-15,.cls-16,.cls-17,.cls-18,.cls-19,.cls-2,.cls-20,.cls-21,.cls-22,.cls-23,.cls-24,.cls-25,.cls-26,.cls-27,.cls-28,.cls-29,.cls-3,.cls-30,.cls-31,.cls-32,.cls-33,.cls-34,.cls-35,.cls-36,.cls-37,.cls-38,.cls-39,.cls-4,.cls-40,.cls-41,.cls-42,.cls-43,.cls-44,.cls-45,.cls-46,.cls-47,.cls-48,.cls-49,.cls-5,.cls-50,.cls-51,.cls-52,.cls-53,.cls-54,.cls-55,.cls-56,.cls-57,.cls-58,.cls-59,.cls-6,.cls-60,.cls-61,.cls-62,.cls-63,.cls-64,.cls-65,.cls-66,.cls-67,.cls-68,.cls-69,.cls-7,.cls-70,.cls-71,.cls-72,.cls-73,.cls-74,.cls-75,.cls-76,.cls-77,.cls-78,.cls-79,.cls-8,.cls-80,.cls-81,.cls-82,.cls-83,.cls-84,.cls-85,.cls-86,.cls-87,.cls-88,.cls-89,.cls-9,.cls-90,.cls-91,.cls-92,.cls-93,.cls-94,.cls-95,.cls-96,.cls-97,.cls-98,.cls-99{opacity:0.8;}.cls-2{fill:#0022db;}.cls-3{fill:#0023db;}.cls-4{fill:#0023dc;}.cls-5{fill:#0024dc;}.cls-6{fill:#0025dc;}.cls-7{fill:#0026dc;}.cls-8{fill:#0027dc;}.cls-9{fill:#0027dd;}.cls-10{fill:#0028dd;}.cls-11{fill:#0029dd;}.cls-12{fill:#002add;}.cls-13{fill:#002bde;}.cls-14{fill:#002cde;}.cls-15{fill:#002dde;}.cls-16{fill:#002ede;}.cls-17{fill:#002fde;}.cls-18{fill:#0030df;}.cls-19{fill:#0031df;}.cls-20{fill:#0032df;}.cls-21{fill:#0033df;}.cls-22{fill:#0034e0;}.cls-23{fill:#0035e0;}.cls-24{fill:#0036e0;}.cls-25{fill:#0037e1;}.cls-26{fill:#0039e1;}.cls-27{fill:#003ae1;}.cls-28{fill:#003be1;}.cls-29{fill:#003ce2;}.cls-30{fill:#003ee2;}.cls-31{fill:#003fe2;}.cls-32{fill:#0040e3;}.cls-33{fill:#0042e3;}.cls-34{fill:#0043e3;}.cls-35{fill:#0045e4;}.cls-36{fill:#0046e4;}.cls-37{fill:#0047e5;}.cls-38{fill:#0049e5;}.cls-39{fill:#004ae5;}.cls-40{fill:#004ce6;}.cls-41{fill:#004de6;}.cls-42{fill:#004fe6;}.cls-43{fill:#0051e7;}.cls-44{fill:#0052e7;}.cls-45{fill:#0054e8;}.cls-46{fill:#0055e8;}.cls-47{fill:#0057e8;}.cls-48{fill:#0058e9;}.cls-49{fill:#005ae9;}.cls-50{fill:#005cea;}.cls-51{fill:#0096ff;}.cls-52{fill:#005fea;}.cls-53{fill:#0061eb;}.cls-54{fill:#0062eb;}.cls-55{fill:#0064ec;}.cls-56{fill:#0066ec;}.cls-57{fill:#0067ec;}.cls-58{fill:#0069ed;}.cls-59{fill:#006bed;}.cls-60{fill:#006cee;}.cls-61{fill:#006eee;}.cls-62{fill:#0070ee;}.cls-63{fill:#0071ef;}.cls-64{fill:#0073ef;}.cls-65{fill:#0074f0;}.cls-66{fill:#0076f0;}.cls-67{fill:#0078f1;}.cls-68{fill:#0079f1;}.cls-69{fill:#007bf1;}.cls-70{fill:#007df2;}.cls-71{fill:#007ef2;}.cls-72{fill:#0080f3;}.cls-73{fill:#0081f3;}.cls-74{fill:#0083f3;}.cls-75{fill:#0084f4;}.cls-76{fill:#0086f4;}.cls-77{fill:#0087f4;}.cls-78{fill:#0089f5;}.cls-79{fill:#008af5;}.cls-80{fill:#008cf6;}.cls-81{fill:#008df6;}.cls-82{fill:#008ff6;}.cls-83{fill:#0090f7;}.cls-84{fill:#0092f7;}.cls-85{fill:#0093f7;}.cls-86{fill:#0094f8;}.cls-87{fill:#0096f8;}.cls-88{fill:#0097f8;}.cls-89{fill:#0098f9;}.cls-90{fill:#0099f9;}.cls-91{fill:#009bf9;}.cls-92{fill:#009cfa;}.cls-93{fill:#009dfa;}.cls-94{fill:#009efa;}.cls-95{fill:#009ffa;}.cls-96{fill:#00a0fb;}.cls-97{fill:#00a2fb;}.cls-98{fill:#00a3fb;}.cls-99{fill:#00a4fb;}.cls-100{fill:#00a5fc;}.cls-101{fill:#00a6fc;}.cls-102{fill:#00a7fc;}.cls-103{fill:#00a8fd;}.cls-104{fill:#00a9fd;}.cls-105{fill:#00aafd;}.cls-106{fill:#00abfd;}.cls-107{fill:#00acfd;}.cls-108{fill:#00adfe;}.cls-109{fill:#00aefe;}.cls-110{fill:#00affe;}.cls-111{fill:#00b0fe;}.cls-112{fill:#00b0ff;}.cls-113{fill:#00b1ff;}.cls-114{fill:#00b2ff;}</style></defs><title>资源 2</title><g id="图层_2" data-name="图层 2"><g id="默认"><rect class="cls-1" x="2.15" y="2.46" width="0.03" height="4.68" transform="translate(-3.1 4.96) rotate(-67.4)"/><rect class="cls-1" x="2.15" y="2.46" width="0.03" height="4.68" transform="translate(-3.1 4.96) rotate(-67.4)"/><rect class="cls-1" x="4.34" y="11.6" width="4.6" height="0.03" transform="translate(-5.09 18.05) rotate(-88.95)"/><rect class="cls-1" x="3.48" y="0.88" width="0.04" height="4.47" transform="translate(-1.19 3.15) rotate(-42.04)"/><rect class="cls-1" x="2.39" y="10.99" width="4.42" height="0.05" transform="translate(-7.31 10.24) rotate(-63.6)"/><polygon class="cls-1" points="4.73 0.1 4.79 0.08 6.03 4.23 5.97 4.24 4.73 0.1"/><polygon class="cls-1" points="1.36 10.98 1.32 10.94 4.69 8.29 4.73 8.34 1.36 10.98"/><rect class="cls-1" x="5.34" y="2.05" width="4.21" height="0.07" transform="translate(4.26 9.13) rotate(-81.34)"/><polygon class="cls-1" points="0.17 8.25 0.15 8.18 4.22 7.25 4.24 7.32 0.17 8.25"/><polygon class="cls-1" points="10.56 12.23 10.5 12.27 8.16 8.86 8.22 8.82 10.56 12.23"/><polygon class="cls-1" points="10.45 1.17 10.51 1.21 8.21 4.61 8.15 4.56 10.45 1.17"/><polygon class="cls-1" points="0.25 5.31 0.27 5.24 4.24 6.12 4.22 6.2 0.25 5.31"/><rect class="cls-1" x="7.42" y="9.22" width="0.08" height="4.04" transform="matrix(0.99, -0.16, 0.16, 0.99, -1.68, 1.32)"/><polygon class="cls-1" points="1.55 2.73 1.6 2.67 4.74 5.11 4.69 5.17 1.55 2.73"/><polygon class="cls-1" points="4.95 12.97 4.87 12.95 5.98 9.16 6.06 9.18 4.95 12.97"/><polygon class="cls-1" points="3.79 0.98 3.88 0.94 5.63 4.41 5.55 4.45 3.79 0.98"/><polygon class="cls-1" points="2.51 11.54 2.44 11.47 5 8.59 5.08 8.65 2.51 11.54"/><polygon class="cls-1" points="6.53 0.36 6.63 0.36 6.73 4.16 6.63 4.17 6.53 0.36"/><polygon class="cls-1" points="0.93 9.23 0.89 9.13 4.37 7.66 4.41 7.75 0.93 9.23"/><polygon class="cls-1" points="9.23 0.96 9.33 1 7.82 4.41 7.72 4.37 9.23 0.96"/><polygon class="cls-1" points="0.5 6.51 0.5 6.4 4.2 6.55 4.2 6.66 0.5 6.51"/><polygon class="cls-1" points="8.83 12.57 8.73 12.6 7.52 9.13 7.63 9.1 8.83 12.57"/><polygon class="cls-1" points="1.26 3.9 1.31 3.79 4.52 5.48 4.47 5.58 1.26 3.9"/><polygon class="cls-1" points="6.13 12.82 6.02 12.81 6.41 9.23 6.52 9.24 6.13 12.82"/><polygon class="cls-1" points="3.04 1.89 3.13 1.81 5.27 4.65 5.17 4.73 3.04 1.89"/><polygon class="cls-1" points="3.62 11.91 3.52 11.85 5.36 8.84 5.47 8.9 3.62 11.91"/><polygon class="cls-1" points="5.47 0.84 5.6 0.81 6.29 4.23 6.17 4.25 5.47 0.84"/><polygon class="cls-1" points="1.76 10.04 1.69 9.93 4.59 8.04 4.66 8.15 1.76 10.04"/><polygon class="cls-1" points="8.09 0.93 8.22 0.96 7.41 4.28 7.28 4.25 8.09 0.93"/><polygon class="cls-1" points="0.89 7.58 0.87 7.44 4.23 6.99 4.25 7.12 0.89 7.58"/><polygon class="cls-1" points="9.68 11.82 9.56 11.88 7.91 8.94 8.03 8.88 9.68 11.82"/><polygon class="cls-1" points="10.39 2.12 10.5 2.21 8.38 4.81 8.27 4.72 10.39 2.12"/><polygon class="cls-1" points="1.15 5.01 1.19 4.88 4.36 5.89 4.32 6.02 1.15 5.01"/><polygon class="cls-1" points="7.21 12.52 7.07 12.53 6.84 9.23 6.98 9.22 7.21 12.52"/><polygon class="cls-2" points="2.46 2.83 2.56 2.73 4.95 4.95 4.85 5.06 2.46 2.83"/><polygon class="cls-2" points="4.71 12.1 4.57 12.04 5.75 9.02 5.89 9.08 4.71 12.1"/><polygon class="cls-2" points="4.56 1.44 4.7 1.38 5.88 4.36 5.74 4.41 4.56 1.44"/><polygon class="cls-2" points="2.65 10.66 2.54 10.55 4.86 8.37 4.97 8.48 2.65 10.66"/><polygon class="cls-3" points="7.02 1.08 7.18 1.09 6.98 4.22 6.82 4.21 7.02 1.08"/><polygon class="cls-4" points="1.41 8.52 1.36 8.37 4.33 7.41 4.38 7.56 1.41 8.52"/><polygon class="cls-4" points="10.36 10.99 10.23 11.09 8.26 8.7 8.39 8.59 10.36 10.99"/><polygon class="cls-5" points="9.38 1.8 9.52 1.87 8.02 4.57 7.88 4.49 9.38 1.8"/><polygon class="cls-5" points="1.22 6.07 1.24 5.91 4.27 6.31 4.25 6.47 1.22 6.07"/><polygon class="cls-6" points="8.16 12.06 8.01 12.11 7.27 9.15 7.42 9.11 8.16 12.06"/><polygon class="cls-6" points="2.08 3.81 2.17 3.66 4.69 5.29 4.6 5.43 2.08 3.81"/><polygon class="cls-7" points="5.75 12.1 5.58 12.07 6.17 9.14 6.33 9.17 5.75 12.1"/><polygon class="cls-8" points="3.8 2.14 3.95 2.05 5.5 4.55 5.35 4.64 3.8 2.14"/><polygon class="cls-9" points="3.58 11.11 3.44 11.01 5.18 8.66 5.32 8.76 3.58 11.11"/><polygon class="cls-10" points="6.05 1.38 6.22 1.36 6.55 4.24 6.37 4.25 6.05 1.38"/><polygon class="cls-11" points="2.05 9.31 1.97 9.15 4.5 7.8 4.59 7.96 2.05 9.31"/><polygon class="cls-11" points="8.37 1.66 8.55 1.71 7.63 4.4 7.46 4.34 8.37 1.66"/><polygon class="cls-12" points="1.45 7.05 1.44 6.87 4.26 6.74 4.27 6.92 1.45 7.05"/><polygon class="cls-13" points="8.99 11.49 8.82 11.56 7.67 9.01 7.84 8.94 8.99 11.49"/><polygon class="cls-14" points="1.87 4.78 1.94 4.61 4.49 5.67 4.42 5.85 1.87 4.78"/><polygon class="cls-15" points="6.73 11.93 6.54 11.93 6.59 9.19 6.78 9.19 6.73 11.93"/><polygon class="cls-16" points="3.2 2.93 3.35 2.8 5.16 4.81 5.01 4.94 3.2 2.93"/><polygon class="cls-17" points="4.52 11.38 4.35 11.29 5.55 8.88 5.72 8.97 4.52 11.38"/><polygon class="cls-18" points="5.18 1.83 5.37 1.77 6.13 4.32 5.94 4.38 5.18 1.83"/><polygon class="cls-19" points="2.79 9.95 2.66 9.79 4.74 8.16 4.86 8.31 2.79 9.95"/><polygon class="cls-20" points="7.41 1.69 7.61 1.72 7.21 4.29 7.01 4.26 7.41 1.69"/><polygon class="cls-21" points="1.84 7.93 1.79 7.73 4.31 7.16 4.36 7.36 1.84 7.93"/><polygon class="cls-22" points="9.66 10.81 9.49 10.93 8.04 8.8 8.21 8.69 9.66 10.81"/><polygon class="cls-23" points="9.46 2.51 9.63 2.62 8.2 4.73 8.03 4.62 9.46 2.51"/><polygon class="cls-24" points="1.84 5.73 1.89 5.53 4.36 6.08 4.32 6.28 1.84 5.73"/><polygon class="cls-25" points="7.62 11.61 7.41 11.65 7.02 9.16 7.22 9.13 7.62 11.61"/><polygon class="cls-26" points="2.78 3.76 2.9 3.59 4.87 5.12 4.74 5.29 2.78 3.76"/><polygon class="cls-27" points="5.45 11.47 5.25 11.41 5.95 9.04 6.15 9.1 5.45 11.47"/><polygon class="cls-28" points="4.44 2.4 4.64 2.3 5.73 4.47 5.54 4.57 4.44 2.4"/><polygon class="cls-29" points="3.58 10.42 3.42 10.28 5.03 8.47 5.19 8.62 3.58 10.42"/><polygon class="cls-30" points="6.51 1.88 6.73 1.88 6.79 4.26 6.57 4.27 6.51 1.88"/><polygon class="cls-31" points="2.35 8.69 2.26 8.49 4.44 7.57 4.53 7.77 2.35 8.69"/><polygon class="cls-32" points="8.58 2.3 8.79 2.39 7.83 4.53 7.63 4.43 8.58 2.3"/><polygon class="cls-33" points="1.97 6.62 1.98 6.4 4.3 6.5 4.29 6.72 1.97 6.62"/><polygon class="cls-34" points="8.4 11.16 8.19 11.24 7.43 9.06 7.64 8.98 8.4 11.16"/><polygon class="cls-35" points="2.52 4.62 2.62 4.42 4.63 5.47 4.53 5.68 2.52 4.62"/><polygon class="cls-36" points="6.34 11.4 6.11 11.37 6.36 9.13 6.59 9.15 6.34 11.4"/><polygon class="cls-37" points="3.85 3.05 4.03 2.91 5.37 4.69 5.18 4.83 3.85 3.05"/><polygon class="cls-38" points="4.4 10.73 4.2 10.61 5.36 8.73 5.56 8.85 4.4 10.73"/><polygon class="cls-39" points="5.7 2.22 5.93 2.17 6.37 4.3 6.14 4.35 5.7 2.22"/><polygon class="cls-40" points="2.95 9.32 2.82 9.12 4.63 7.94 4.76 8.14 2.95 9.32"/><polygon class="cls-41" points="7.71 2.25 7.95 2.31 7.44 4.38 7.2 4.33 7.71 2.25"/><polygon class="cls-42" points="2.25 7.44 2.22 7.2 4.32 6.92 4.35 7.16 2.25 7.44"/><polygon class="cls-43" points="9.06 10.61 8.85 10.73 7.82 8.89 8.03 8.77 9.06 10.61"/><polygon class="cls-44" points="9.5 3.14 9.69 3.29 8.37 4.91 8.18 4.76 9.5 3.14"/><polygon class="cls-45" points="2.42 5.47 2.49 5.23 4.46 5.86 4.39 6.09 2.42 5.47"/><polygon class="cls-46" points="7.17 11.18 6.92 11.19 6.78 9.14 7.03 9.13 7.17 11.18"/><polygon class="cls-47" points="3.4 3.77 3.57 3.59 5.05 4.97 4.88 5.15 3.4 3.77"/><polygon class="cls-48" points="5.23 10.89 5 10.79 5.74 8.92 5.97 9.01 5.23 10.89"/><polygon class="cls-49" points="5 2.67 5.23 2.58 5.96 4.42 5.73 4.51 5 2.67"/><polygon class="cls-50" points="3.63 9.81 3.45 9.62 4.89 8.28 5.06 8.46 3.63 9.81"/><polygon class="cls-51" points="6.89 2.36 7.15 2.38 7.02 4.31 6.77 4.29 6.89 2.36"/><polygon class="cls-52" points="2.65 8.17 2.57 7.92 4.4 7.33 4.48 7.58 2.65 8.17"/><polygon class="cls-53" points="9.58 9.97 9.38 10.14 8.17 8.66 8.37 8.5 9.58 9.97"/><polygon class="cls-54" points="8.72 2.89 8.95 3.01 8.03 4.67 7.8 4.54 8.72 2.89"/><polygon class="cls-55" points="2.47 6.28 2.5 6.02 4.36 6.27 4.33 6.53 2.47 6.28"/><polygon class="cls-56" points="7.9 10.83 7.65 10.89 7.2 9.09 7.45 9.02 7.9 10.83"/><polygon class="cls-57" points="3.1 4.52 3.25 4.3 4.79 5.29 4.64 5.52 3.1 4.52"/><polygon class="cls-58" points="6.04 10.89 5.78 10.84 6.13 9.05 6.4 9.1 6.04 10.89"/><polygon class="cls-59" points="4.41 3.21 4.64 3.07 5.59 4.6 5.36 4.74 4.41 3.21"/><polygon class="cls-60" points="4.35 10.15 4.13 9.99 5.19 8.56 5.41 8.72 4.35 10.15"/><polygon class="cls-61" points="6.14 2.6 6.41 2.57 6.61 4.31 6.33 4.34 6.14 2.6"/><polygon class="cls-62" points="3.15 8.78 3.02 8.53 4.55 7.72 4.68 7.96 3.15 8.78"/><polygon class="cls-63" points="7.94 2.78 8.2 2.87 7.65 4.49 7.39 4.4 7.94 2.78"/><polygon class="cls-64" points="2.65 7.04 2.64 6.76 4.33 6.68 4.35 6.96 2.65 7.04"/><polygon class="cls-65" points="8.54 10.38 8.28 10.49 7.59 8.96 7.85 8.85 8.54 10.38"/><polygon class="cls-66" points="2.95 5.28 3.06 5.02 4.58 5.66 4.47 5.92 2.95 5.28"/><polygon class="cls-67" points="6.79 10.75 6.51 10.75 6.55 9.11 6.83 9.11 6.79 10.75"/><polygon class="cls-68" points="3.96 3.83 4.17 3.64 5.25 4.84 5.03 5.03 3.96 3.83"/><polygon class="cls-69" points="5.08 10.35 4.83 10.22 5.54 8.79 5.8 8.92 5.08 10.35"/><polygon class="cls-70" points="5.47 2.96 5.75 2.87 6.2 4.38 5.92 4.46 5.47 2.96"/><polygon class="cls-71" points="3.72 9.26 3.54 9.04 4.77 8.07 4.95 8.3 3.72 9.26"/><polygon class="cls-72" points="7.2 2.82 7.48 2.86 7.25 4.38 6.96 4.33 7.2 2.82"/><polygon class="cls-73" points="2.96 7.72 2.9 7.43 4.38 7.1 4.44 7.38 2.96 7.72"/><polygon class="cls-74" points="9.05 9.85 8.81 10.01 7.96 8.77 8.2 8.6 9.05 9.85"/><polygon class="cls-75" points="8.79 3.42 9.04 3.59 8.2 4.82 7.96 4.66 8.79 3.42"/><polygon class="cls-76" points="2.94 6.01 3 5.73 4.44 6.05 4.38 6.34 2.94 6.01"/><polygon class="cls-77" points="7.48 10.49 7.19 10.54 6.96 9.09 7.25 9.04 7.48 10.49"/><polygon class="cls-78" points="3.63 4.48 3.82 4.25 4.95 5.13 4.77 5.37 3.63 4.48"/><polygon class="cls-79" points="5.81 10.41 5.52 10.32 5.92 8.96 6.21 9.04 5.81 10.41"/><polygon class="cls-80" points="4.91 3.41 5.18 3.27 5.8 4.52 5.54 4.66 4.91 3.41"/><polygon class="cls-81" points="4.34 9.62 4.12 9.42 5.04 8.39 5.27 8.59 4.34 9.62"/><polygon class="cls-82" points="6.5 2.98 6.8 2.97 6.84 4.33 6.53 4.34 6.5 2.98"/><polygon class="cls-83" points="3.37 8.3 3.25 8.02 4.49 7.5 4.61 7.78 3.37 8.3"/><polygon class="cls-84" points="8.1 3.27 8.38 3.4 7.85 4.61 7.56 4.48 8.1 3.27"/><polygon class="cls-85" points="3.05 6.71 3.07 6.4 4.38 6.46 4.36 6.77 3.05 6.71"/><polygon class="cls-86" points="8.08 10.13 7.79 10.23 7.37 9.01 7.66 8.9 8.08 10.13"/><polygon class="cls-87" points="3.44 5.15 3.59 4.88 4.72 5.47 4.57 5.75 3.44 5.15"/><polygon class="cls-88" points="6.5 10.34 6.18 10.3 6.32 9.05 6.63 9.09 6.5 10.34"/><polygon class="cls-89" points="4.45 3.92 4.71 3.73 5.45 4.72 5.19 4.91 4.45 3.92"/><polygon class="cls-90" points="4.99 9.85 4.72 9.69 5.36 8.64 5.63 8.81 4.99 9.85"/><polygon class="cls-91" points="5.87 3.25 6.19 3.19 6.42 4.37 6.11 4.43 5.87 3.25"/><polygon class="cls-92" points="3.85 8.78 3.67 8.51 4.67 7.87 4.84 8.13 3.85 8.78"/><polygon class="cls-93" points="7.43 3.25 7.74 3.33 7.46 4.46 7.15 4.38 7.43 3.25"/><polygon class="cls-94" points="3.28 7.34 3.24 7.02 4.38 6.87 4.42 7.19 3.28 7.34"/><polygon class="cls-95" points="8.59 9.69 8.3 9.85 7.75 8.85 8.03 8.69 8.59 9.69"/><polygon class="cls-96" points="8.82 3.91 9.07 4.12 8.36 4.99 8.11 4.79 8.82 3.91"/><polygon class="cls-97" points="3.38 5.81 3.48 5.5 4.54 5.84 4.44 6.15 3.38 5.81"/><polygon class="cls-98" points="7.13 10.15 6.81 10.18 6.73 9.08 7.06 9.05 7.13 10.15"/><polygon class="cls-99" points="4.12 4.49 4.34 4.25 5.13 4.99 4.91 5.23 4.12 4.49"/><polygon class="cls-100" points="5.64 9.96 5.33 9.84 5.72 8.84 6.03 8.96 5.64 9.96"/><polygon class="cls-101" points="5.33 3.62 5.64 3.49 6.03 4.46 5.72 4.59 5.33 3.62"/><polygon class="cls-101" points="4.38 9.15 4.15 8.91 4.91 8.2 5.14 8.44 4.38 9.15"/><polygon class="cls-102" points="6.79 3.35 7.13 3.37 7.06 4.38 6.73 4.36 6.79 3.35"/><polygon class="cls-103" points="3.6 7.9 3.5 7.58 4.45 7.27 4.55 7.59 3.6 7.9"/><polygon class="cls-104" points="8.98 9.19 8.72 9.4 8.1 8.64 8.36 8.42 8.98 9.19"/><polygon class="cls-105" points="8.21 3.73 8.5 3.89 8.03 4.74 7.73 4.58 8.21 3.73"/><polygon class="cls-106" points="3.43 6.45 3.48 6.11 4.43 6.24 4.39 6.57 3.43 6.45"/><polygon class="cls-106" points="7.7 9.88 7.37 9.96 7.14 9.03 7.47 8.95 7.7 9.88"/><polygon class="cls-107" points="3.9 5.08 4.08 4.79 4.86 5.3 4.68 5.58 3.9 5.08"/><polygon class="cls-108" points="6.26 9.95 5.93 9.88 6.11 8.98 6.44 9.04 6.26 9.95"/><polygon class="cls-108" points="4.89 4.05 5.18 3.87 5.65 4.63 5.36 4.81 4.89 4.05"/><polygon class="cls-109" points="4.95 9.41 4.67 9.2 5.2 8.49 5.48 8.69 4.95 9.41"/><polygon class="cls-109" points="6.21 3.55 6.55 3.51 6.65 4.37 6.31 4.41 6.21 3.55"/><polygon class="cls-110" points="4 8.36 3.83 8.06 4.59 7.66 4.75 7.96 4 8.36"/><polygon class="cls-110" points="7.61 3.66 7.94 3.77 7.66 4.56 7.33 4.45 7.61 3.66"/><polygon class="cls-111" points="3.59 7.03 3.57 6.68 4.4 6.64 4.41 6.99 3.59 7.03"/><polygon class="cls-112" points="8.19 9.52 7.87 9.66 7.53 8.92 7.85 8.77 8.19 9.52"/><polygon class="cls-112" points="3.79 5.67 3.92 5.34 4.65 5.65 4.52 5.97 3.79 5.67"/><polygon class="cls-113" points="6.85 9.83 6.49 9.83 6.51 9.04 6.87 9.05 6.85 9.83"/><polygon class="cls-113" points="4.54 4.53 4.8 4.29 5.31 4.86 5.05 5.1 4.54 4.53"/><polygon class="cls-113" points="5.52 9.55 5.2 9.39 5.54 8.72 5.85 8.88 5.52 9.55"/><polygon class="cls-114" points="5.7 3.83 6.04 3.73 6.25 4.43 5.91 4.53 5.7 3.83"/><polygon class="cls-114" points="4.45 8.74 4.22 8.46 4.79 8.01 5.01 8.29 4.45 8.74"/><polygon class="cls-114" points="7.03 3.69 7.38 3.74 7.28 4.44 6.92 4.39 7.03 3.69"/><polygon class="cls-114" points="3.83 7.55 3.75 7.2 4.43 7.05 4.51 7.4 3.83 7.55"/><polygon class="cls-114" points="8.58 9.1 8.29 9.31 7.9 8.74 8.2 8.54 8.58 9.1"/><polygon class="cls-114" points="8.28 4.13 8.58 4.33 8.2 4.89 7.9 4.69 8.28 4.13"/><polygon class="cls-114" points="3.78 6.24 3.86 5.88 4.51 6.03 4.43 6.38 3.78 6.24"/><polygon class="cls-114" points="7.38 9.63 7.02 9.69 6.92 9.04 7.28 8.98 7.38 9.63"/><polygon class="cls-114" points="4.29 5.03 4.52 4.75 5.02 5.14 4.79 5.43 4.29 5.03"/><polygon class="cls-114" points="6.08 9.6 5.73 9.5 5.9 8.89 6.26 8.99 6.08 9.6"/><polygon class="cls-114" points="5.26 4.17 5.59 4.01 5.86 4.56 5.53 4.72 5.26 4.17"/><polygon class="cls-114" points="4.92 9.02 4.65 8.77 5.05 8.32 5.33 8.57 4.92 9.02"/><polygon class="cls-114" points="6.49 3.81 6.86 3.8 6.87 4.39 6.5 4.4 6.49 3.81"/><polygon class="cls-114" points="4.14 8.01 3.99 7.67 4.53 7.44 4.67 7.79 4.14 8.01"/><polygon class="cls-114" points="7.74 4.01 8.08 4.16 7.85 4.67 7.51 4.52 7.74 4.01"/><polygon class="cls-114" points="3.86 6.77 3.88 6.4 4.43 6.43 4.42 6.8 3.86 6.77"/><polygon class="cls-114" points="7.85 9.36 7.5 9.48 7.32 8.97 7.67 8.84 7.85 9.36"/><polygon class="cls-114" points="4.13 5.55 4.31 5.21 4.78 5.46 4.6 5.8 4.13 5.55"/><polygon class="cls-114" points="6.61 9.56 6.24 9.52 6.3 8.99 6.67 9.04 6.61 9.56"/><polygon class="cls-114" points="4.9 4.56 5.2 4.34 5.5 4.75 5.2 4.97 4.9 4.56"/><polygon class="cls-114" points="5.42 9.21 5.1 9.02 5.36 8.59 5.68 8.78 5.42 9.21"/><polygon class="cls-114" points="6 4 6.37 3.92 6.47 4.41 6.1 4.49 6 4"/><polygon class="cls-114" points="4.49 8.4 4.29 8.08 4.69 7.81 4.9 8.13 4.49 8.4"/><polygon class="cls-114" points="7.22 3.96 7.59 4.05 7.48 4.51 7.11 4.42 7.22 3.96"/><polygon class="cls-114" points="4.01 7.27 3.96 6.89 4.42 6.83 4.47 7.21 4.01 7.27"/><polygon class="cls-114" points="8.26 9.04 7.92 9.23 7.7 8.83 8.03 8.64 8.26 9.04"/><rect class="cls-114" x="8.12" y="4.56" width="0.46" height="0.38" transform="translate(-0.61 8.21) rotate(-50.75)"/><rect class="cls-114" x="4.13" y="5.71" width="0.38" height="0.45" transform="translate(-2.65 8.25) rotate(-72.28)"/><rect class="cls-114" x="6.72" y="9.02" width="0.38" height="0.45" transform="matrix(1, -0.07, 0.07, 1, -0.6, 0.48)"/><rect class="cls-114" x="4.7" y="4.76" width="0.38" height="0.44" transform="translate(-2.09 5.15) rotate(-46.91)"/><rect class="cls-114" x="5.59" y="8.88" width="0.44" height="0.38" transform="translate(-4.76 11.14) rotate(-68.45)"/></g></g></svg>
