<?xml version="1.0" standalone="no"?><!DOCTYPE svg PUBLIC "-//W3C//DTD SVG 1.1//EN" "http://www.w3.org/Graphics/SVG/1.1/DTD/svg11.dtd"><svg t="1706080196311" class="icon" viewBox="0 0 1024 1024" version="1.1" xmlns="http://www.w3.org/2000/svg" p-id="3334" xmlns:xlink="http://www.w3.org/1999/xlink" width="12" height="12"><path d="M1024.497933 108.549477l-0.995866-91.619742c0-4.4814-1.991734-8.962801-5.228301-12.199368-3.236567-2.9876-7.717967-4.730367-12.448334-4.730367l-100.83151 2.489667c-9.460734 0.248967-17.178702 8.215901-16.929735 17.676635s8.215901 16.929735 17.676635 16.680768l59.005106-1.4938c-89.379042 85.644542-182.990518 156.351082-278.095794 210.127887-82.905908 47.054705-167.305616 81.661075-251.207391 102.823244-142.408947 36.10017-234.526623 20.664235-235.52249 20.415268-9.211768-1.4938-18.174568 4.730367-19.917335 13.942135-1.742767 9.460734 4.4814 18.423535 13.942134 20.166302 0.497933 0 2.9876 0.497933 6.971068 0.995867 24.647702 2.9876 112.532944 10.456601 240.75079-21.660102 86.889375-21.660102 174.52565-57.262339 260.419159-105.810844 98.59081-55.768539 195.189886-128.715779 287.556528-217.098955l0.497933 49.544372c0.248967 8.713834 6.722101 15.933868 14.938001 16.929735 0.995867 0.248967 1.742767 0.248967 2.489667 0.248967 9.460734-0.248967 17.178702-7.966934 16.929735-17.427669z" fill="#231f20" p-id="3335"></path><path d="M992.132264 929.392657h-139.172381c11.452468-7.717967 22.158035-16.431802 32.116703-26.390469 39.336737-39.336737 60.747873-91.370776 60.747873-146.890347s-21.411135-107.553611-60.747873-146.890348c-13.942135-13.942135-29.37807-25.394602-46.058837-34.60637v-69.461707c0-9.460734-7.717967-17.178702-17.178702-17.178702s-17.178702 7.717967-17.178702 17.178702v54.274739c-47.054705-16.182835-98.341843-14.440068-144.400681 4.232433v-171.787016c0-2.2407 1.742767-3.983467 3.983468-3.983467h136.433746c2.2407 0 3.983467 1.742767 3.983467 3.983467v42.573304c0 9.709701 7.717967 17.427668 17.178702 17.427668s17.178702-7.717967 17.178702-17.427668v-42.573304c0-21.411135-17.178702-38.589837-38.340871-38.589837h-136.433746c-21.162169 0-38.34087 17.178702-38.340871 38.589837v189.712618c-12.199368 7.717967-23.900802 16.929735-34.357403 27.635303-39.336737 39.336737-60.996839 91.370776-60.99684 146.890348s21.660102 107.553611 60.99684 146.890347c9.709701 9.958668 20.664235 18.672502 32.116703 26.390469h-186.725018V572.623389c0-21.162169-17.178702-38.589837-38.340871-38.589837h-136.433746c-21.162169 0-38.34087 17.427668-38.340871 38.589837v356.769268H90.872842V43.569171c0-17.676635-14.440068-31.867736-31.867736-31.867737H31.867736C14.191101 11.701434 0 25.892536 0 43.569171v122.242645c0 9.460734 7.717967 17.178702 17.178702 17.178702s17.178702-7.717967 17.178701-17.178702V46.058838h21.909069v885.823486c0 17.676635 14.440068 31.867736 31.867737 31.867737h901.259421v25.892536H34.357403V274.61026c0-9.460734-7.717967-17.178702-17.178701-17.178702s-17.178702 7.717967-17.178702 17.178702v717.77097c0 17.427668 14.191101 31.61877 31.867736 31.61877h960.264528c17.427668 0 31.61877-14.191101 31.618769-31.61877v-31.369803c0-17.427668-14.191101-31.61877-31.618769-31.61877z m-733.953805 0V572.623389c0-2.2407 1.742767-3.983467 3.983467-3.983467h136.433746c2.2407 0 3.983467 1.742767 3.983467 3.983467v356.769268h-144.40068z m556.191587-17.676635c-17.427668 8.464867-36.349137 13.942135-55.768539 16.431802h-0.995866c-1.244833 0.248967-2.489667 0.248967-3.983467 0.497933-1.991734 0-3.983467 0.248967-5.975201 0.497934h-1.991734c-2.489667 0-4.979334 0.248967-7.469 0.248966s-4.979334-0.248967-7.469001-0.248966c-0.7469 0-1.4938 0-2.2407-0.248967-1.991734 0-3.7345-0.248967-5.726234-0.248967-1.4938-0.248967-2.9876-0.248967-4.481401-0.497933-1.244833-0.248967-2.2407-0.248967-3.485533-0.497933-1.4938-0.248967-2.9876-0.497933-4.730367-0.7469h-0.497934c-20.415269-3.485534-39.834671-10.456601-57.760272-20.664236-0.248967-0.248967-0.248967-0.248967-0.497933-0.248967-12.697301-7.469001-24.647702-16.680768-35.602237-27.386336-32.614637-32.863603-50.540238-76.183807-50.540238-122.491611s17.925602-89.876975 50.540238-122.491612c12.697301-12.448335 26.639436-22.655969 41.577437-30.622903 0.248967-0.248967 0.7469-0.497933 1.244834-0.746901 24.896669-12.697301 52.283005-19.419402 79.669341-19.419401 21.909069 0 43.818138 4.232434 64.482373 12.448334 0.497933 0.248967 0.7469 0.248967 1.244833 0.497934 1.991734 0.995867 4.232434 1.742767 6.224167 2.738633 0.995867 0.497933 1.742767 0.7469 2.489667 1.244834 17.427668 8.215901 33.85947 19.419402 48.050572 33.85947 67.469973 67.469973 67.469973 177.513251 0 244.983223-13.444201 13.444201-28.880136 24.647702-45.809871 32.863604 0 0-0.248967 0-0.497934 0.248966z" fill="#231f20" p-id="3336"></path><path d="M749.638707 739.431072v-61.494772c21.162169 1.742767 28.880136 11.203501 36.10017 11.203501 9.211768 0 13.444201-11.452468 13.444201-17.178702 0-14.689035-29.129103-21.162169-49.544371-21.660102v-8.215901c0-3.7345-4.730367-6.971067-9.211768-6.971067-4.979334 0-8.713834 3.236567-8.713834 6.971067v8.713834c-28.631169 2.9876-57.511306 18.174568-57.511306 56.266472 0 38.589837 30.373936 49.544372 57.511306 59.254073v70.955507c-30.87187-2.489667-39.08777-23.402869-49.046438-23.402869-7.469001 0-13.693168 9.958668-13.693168 17.178701 0 14.689035 25.145636 35.104303 62.739606 35.602237v9.460735c0 3.485534 3.7345 6.722101 8.713834 6.7221 4.4814 0 9.211768-3.236567 9.211768-6.7221v-10.456601c32.614637-4.4814 55.021639-24.896669 55.021638-62.241673 0-41.079504-28.880136-54.274739-55.021638-63.98444z m-16.182835-5.726234c-15.933868-5.975201-28.880136-12.448335-28.880137-29.627036 0-15.684902 11.950401-23.402869 28.880137-25.394602v55.021638z m14.191101 103.07221v-63.735473c14.938001 6.224167 26.639436 14.689035 26.639436 33.85947 0 17.178702-10.207634 26.888403-26.639436 29.876003z" fill="#231f20" p-id="3337"></path></svg>