<?xml version="1.0" standalone="no"?><!DOCTYPE svg PUBLIC "-//W3C//DTD SVG 1.1//EN" "http://www.w3.org/Graphics/SVG/1.1/DTD/svg11.dtd"><svg t="1706083524648" class="icon" viewBox="0 0 1024 1024" version="1.1" xmlns="http://www.w3.org/2000/svg" p-id="21620" xmlns:xlink="http://www.w3.org/1999/xlink" width="12" height="12"><path d="M273.205131 665.486479c18.844056 0 34.122329 15.278273 34.122329 34.122329a17.061164 17.061164 0 0 0 34.122328 0c-0.023459-31.098237-21.068405-58.257479-51.183493-66.028839v-36.34028a17.061164 17.061164 0 0 0-34.122329 0v36.34028c-33.171169 8.671337-54.766338 40.611969-50.441332 74.634064 4.322873 34.015697 33.213822 59.539199 67.502497 59.639433 18.844056 0 34.122329 15.278273 34.122329 34.122329s-15.278273 34.122329-34.122329 34.122329-34.122329-15.278273-34.122329-34.122329a17.061164 17.061164 0 0 0-34.122329 0c0.025592 31.098237 21.076936 58.246815 51.183493 66.026706v36.34028a17.061164 17.061164 0 0 0 34.122329 0v-36.34028c33.181832-8.671337 54.766338-40.609837 50.443465-74.631931-4.316475-34.015697-33.215955-59.539199-67.504629-59.639433-18.844056 0-34.122329-15.278273-34.122329-34.122329s15.278273-34.122329 34.122329-34.122329z m0 0" fill="#ffffff" p-id="21621"></path><path d="M521.451471 686.638058a17.056899 17.056899 0 0 0-10.972461 7.146495 17.039838 17.039838 0 0 0-2.682868 12.821465c2.840684 14.553173 4.265291 29.349468 4.265291 44.186283 0.108765 115.469961-82.405424 214.480163-196.002923 235.198816-113.597498 20.710121-225.742665-42.802196-266.405817-150.867612-40.66102-108.073946 1.808483-229.766967 100.884798-289.065177H395.874903a240.626398 240.626398 0 0 1 51.183493 41.288018 17.080358 17.080358 0 0 0 12.45465 5.288961 17.071828 17.071828 0 0 0 11.772204-4.606514 17.050501 17.050501 0 0 0 0-24.060507 268.766656 268.766656 0 0 0-31.051319-28.315135 51.189891 51.189891 0 0 0 19.353758-49.626663 51.168565 51.168565 0 0 0-35.222774-39.944451 85.295159 85.295159 0 0 0 19.45186-53.574189v-51.183493a68.233995 68.233995 0 0 0-44.160691-63.755439 68.24679 68.24679 0 0 0-75.26746 18.711832 68.251056 68.251056 0 0 0-102.366987 0 68.24679 68.24679 0 0 0-119.428151 45.041474v51.183494a85.357006 85.357006 0 0 0 18.937893 53.576321 51.183493 51.183493 0 0 0-35.999057 48.792798 51.187759 51.187759 0 0 0 20.136439 40.603439C4.766902 613.91911-28.205931 751.875685 26.319418 867.462942c54.531747 115.589389 181.957319 177.875435 306.668033 149.884462 124.700051-27.98031 213.296545-138.745655 213.196311-266.555103a268.478749 268.478749 0 0 0-4.772861-51.183493 17.067562 17.067562 0 0 0-19.961562-12.97075zM136.715815 341.324355c0-18.844056 15.278273-34.122329 34.122329-34.122329s34.122329 15.278273 34.122329 34.122329a17.061164 17.061164 0 0 0 34.122329 0c0-18.844056 15.278273-34.122329 34.122329-34.122329s34.122329 15.278273 34.122329 34.122329a17.061164 17.061164 0 0 0 34.122328 0c0-18.844056 15.278273-34.122329 34.122329-34.122329s34.122329 15.278273 34.122329 34.122329v51.183493c0 28.266084-22.917409 51.183493-51.183493 51.183494h-170.611645c-28.266084 0-51.183493-22.917409-51.183493-51.183494z m0 136.489315h272.978631a17.061164 17.061164 0 0 1 0 34.122329h-272.978631a17.061164 17.061164 0 0 1 0-34.122329z m0 0" fill="#ffffff" p-id="21622"></path><path d="M931.93669 420.831514a17.061164 17.061164 0 0 0 13.309841 20.127909h3.416498a17.06543 17.06543 0 0 0 17.061164-13.819544l24.049844-119.939986v-6.137754a1.503515 1.503515 0 0 0 0-0.857323v-2.725521a12.043049 12.043049 0 0 0-1.364893-2.565573h-19.102106l-120.628831 24.058375c-9.422028 1.883126-15.527792 11.055635-13.644666 20.477662a17.393857 17.393857 0 0 0 20.466999 13.644667l66.028839-21.667679-178.118556 177.267631-60.737746-60.396522a17.054767 17.054767 0 0 0-24.049844 0l-204.733973 204.733973a17.059032 17.059032 0 0 0 12.113427 29.174591 17.091021 17.091021 0 0 0 12.113427-4.947737l192.961769-192.789026 60.387992 60.396522a17.06543 17.06543 0 0 0 24.058374 0l189.381058-189.378925z m0 0M699.734242 665.486479h-68.244658a17.061164 17.061164 0 0 0-17.061165 17.061165v221.795137a17.061164 17.061164 0 0 0 34.122329 0v-204.733973h34.122329v204.733973a17.061164 17.061164 0 0 0 34.122329 0v-221.795137a17.061164 17.061164 0 0 0-17.061164-17.061165z m0 0M853.284722 597.241822h-68.244658a17.061164 17.061164 0 0 0-17.061165 17.061164v290.039795a17.061164 17.061164 0 0 0 34.122329 0v-272.978631h34.122329v272.978631a17.061164 17.061164 0 0 0 34.122329 0v-290.039795a17.061164 17.061164 0 0 0-17.061164-17.061164z m0 0M1006.835202 477.81367h-68.244658a17.061164 17.061164 0 0 0-17.061165 17.061165v409.467946a17.061164 17.061164 0 0 0 34.122329 0v-392.406782h34.122329v392.406782a17.061164 17.061164 0 0 0 34.122329 0v-409.467946a17.061164 17.061164 0 0 0-17.061164-17.061165z m0 0M460.87794 204.835039h51.183493v255.917467a17.061164 17.061164 0 0 0 34.122329 0v-272.978631a17.061164 17.061164 0 0 0-17.061165-17.061165h-27.122986l129.489973-129.492105 129.500636 129.492105H733.856571a17.061164 17.061164 0 0 0-17.061165 17.061165v136.489315a17.061164 17.061164 0 0 0 34.122329 0v-119.428151h51.183493a17.052634 17.052634 0 0 0 15.696272-10.580054 17.052634 17.052634 0 0 0-3.582845-18.594537l-170.611644-170.611644a17.059032 17.059032 0 0 0-24.226854 0l-170.611644 170.611644a17.052634 17.052634 0 0 0-3.582845 18.594537 17.052634 17.052634 0 0 0 15.696272 10.577922z m0 0" fill="#ffffff" p-id="21623"></path><path d="M580.306091 238.957368v153.55048a17.061164 17.061164 0 0 0 34.122328 0v-153.55048a17.061164 17.061164 0 0 0-34.122328 0z m0 0M648.550748 204.835039v102.366987a17.061164 17.061164 0 0 0 34.122329 0v-102.366987a17.061164 17.061164 0 0 0-34.122329 0z m0 0" fill="#ffffff" p-id="21624"></path></svg>