<svg width="400" height="400" viewBox="0 0 400 400" fill="none" xmlns="http://www.w3.org/2000/svg">
<rect width="400" height="400" rx="200" fill="white"/>
<path d="M199.5 373.46C175.812 373.46 152.83 368.877 131.185 359.844C110.283 351.117 91.5229 338.626 75.4006 322.724C59.2907 306.823 46.6356 288.293 37.7943 267.662C28.6435 246.297 24 223.612 24 200.23C24 176.848 28.6435 154.163 37.7943 132.798C46.6356 112.167 59.2907 93.6495 75.4006 77.7357C91.5229 61.8342 110.283 49.3428 131.185 40.6159C152.83 31.5835 175.812 27 199.5 27C223.188 27 246.17 31.5835 267.815 40.6159C288.717 49.3428 307.477 61.8342 323.599 77.7357C339.709 93.6373 352.364 112.167 361.206 132.798C370.357 154.163 375 176.848 375 200.23C375 223.612 370.357 246.297 361.206 267.662C352.364 288.293 339.709 306.811 323.599 322.724C307.49 338.626 288.717 351.117 267.815 359.844C246.17 368.889 223.188 373.46 199.5 373.46Z" fill="white"/>
<path d="M199.5 364.281C291.29 364.281 365.701 290.833 365.701 200.23C365.701 109.627 291.29 36.1791 199.5 36.1791C107.71 36.1791 33.2994 109.627 33.2994 200.23C33.2994 290.833 107.71 364.281 199.5 364.281Z" fill="black"/>
<path d="M203.586 169.417V245.001L278.551 200.157L203.586 169.417Z" fill="white"/>
<path d="M203.586 160.886L277.87 191.356L260.113 162.78L297.868 125.514L275.307 103.232L242.963 135.169L203.586 71.8077V160.886Z" fill="white"/>
<path d="M195.612 245.001V169.417L120.647 200.157L195.612 245.001Z" fill="white"/>
<path d="M121.328 191.356L195.612 160.886V71.8077L156.247 135.169L123.891 103.232L101.33 125.514L139.085 162.768L121.328 191.356Z" fill="white"/>
<path d="M277.709 223.685L203.586 268.028V326.758L234.085 284.333L265.921 315.757L288.482 293.488L252.82 258.287L277.709 223.685Z" fill="white"/>
<path d="M195.612 268.028L121.489 223.685L146.378 258.287L110.716 293.488L133.277 315.757L165.113 284.345L195.612 326.745V268.028Z" fill="white"/>
</svg>
