<svg width="400" height="400" viewBox="0 0 400 400" fill="none" xmlns="http://www.w3.org/2000/svg">
<rect width="400" height="400" rx="200" fill="white"/>
<path d="M90.8 181.8L88 186C55.8 236.4 62.8 302.2 106.2 344.2C130 369.4 163.6 382 197.2 382C197.2 382 197.2 382 90.8 181.8Z" fill="#00A3FF"/>
<path opacity="0.6" d="M197.2 242L90.8 180.4C197.2 382 197.2 382 197.2 382C197.2 338.6 197.2 288.2 197.2 242Z" fill="#00A3FF"/>
<path opacity="0.6" d="M303.6 181.8L306.4 186C338.6 236.4 331.6 302.2 288.2 344.2C263 369.4 230.8 382 197.2 382C197.2 382 197.2 382 303.6 181.8Z" fill="#00A3FF"/>
<path opacity="0.2" d="M197.2 242L303.6 180.4C197.2 382 197.2 382 197.2 382C197.2 338.6 197.2 288.2 197.2 242Z" fill="#00A3FF"/>
<path opacity="0.2" d="M197.2 106.2V211.2L289.6 159.4L197.2 106.2Z" fill="#00A3FF"/>
<path opacity="0.6" d="M197.2 106.2L104.8 159.4L197.2 211.2V106.2Z" fill="#00A3FF"/>
<path d="M197.2 18L104.8 159.4L197.2 106.2V18Z" fill="#00A3FF"/>
<path opacity="0.6" d="M197.2 106.2L289.6 159.4L197.2 18V106.2Z" fill="#00A3FF"/>
</svg>
